<?xml version="1.0" encoding="utf-8"?>
<!-- Generator: Adobe Illustrator 24.2.1, SVG Export Plug-In . SVG Version: 6.00 Build 0)  -->
<svg version="1.1" id="Layer_1" xmlns="http://www.w3.org/2000/svg" xmlns:xlink="http://www.w3.org/1999/xlink" x="0px" y="0px"
	 width="12px" height="14px" viewBox="0 0 12 14" enable-background="new 0 0 12 14" xml:space="preserve">
<g id="_x30_5.-Icons">
	<g id="_x30_3---Iconography" transform="translate(-1210.000000, -463.000000)">
		<g id="Icon_x2F_UI_x2F_Database" transform="translate(1208.000000, 462.000000)">
			<g id="Icon-Fill">
				<path id="path-1_1_" fill-rule="evenodd" clip-rule="evenodd" fill="#181C56" d="M8,1c3.3122816,0,6,0.9195784,6,2.5
					c0,0.0236387-0.0006018,0.0471296-0.0017967,0.070472L14,3.6226416v9.0566034C14,14.1653538,11.3517323,15,8,15
					c-3.2611451,0-5.8563366-0.7901402-5.994235-2.2016907L2,12.679245V3.6226416L2.0039999,3.576L2,3.5
					c0-1.536521,2.5404744-2.4484024,5.7254667-2.4978769L8,1z M3.3069308,12.679245
					c0,0.4253578,2.062762,1.0754719,4.6930695,1.0754719c2.5454588,0,4.5593977-0.6088476,4.6866798-1.0336361l0.0063896-0.0418358
					l0.0007706-2.4777431C11.6008482,10.7222214,9.9152756,11,8,11s-3.6008487-0.2777786-4.69384-0.7984982L3.3069308,12.679245z
					 M12.6943426,5.1409507C11.59478,5.6973677,9.9001617,6,8,6S4.40522,5.6973677,3.3056576,5.1409507l0.0012732,3.4936643l0,0
					c0,0.4335375,2.062762,1.0961542,4.6930695,1.0961542s4.6930695-0.6626167,4.6930695-1.0961542L12.6943426,5.1409507z
					 M8,2.3414633c-2.5938573,0-4.6930695,0.7182264-4.6930695,1.1585367S5.4061427,4.6585364,8,4.6585364
					S12.6930695,3.9403102,12.6930695,3.5S10.5938568,2.3414633,8,2.3414633z"/>
			</g>
		</g>
	</g>
</g>
</svg>
