<?xml version="1.0" encoding="utf-8"?>
<!-- Generator: Adobe Illustrator 24.0.1, SVG Export Plug-In . SVG Version: 6.00 Build 0)  -->
<svg version="1.1" id="Layer_1" xmlns="http://www.w3.org/2000/svg" xmlns:xlink="http://www.w3.org/1999/xlink" x="0px" y="0px"
	 width="16px" height="16px" viewBox="0 0 16 16" enable-background="new 0 0 16 16" xml:space="preserve">
<path id="map-a" fill-rule="evenodd" clip-rule="evenodd" fill="#181C56" d="M8,1.29
	c1.7306976,0,3.2457819,1.2315195,3.4935293,3.0123382l2.715766-0.6792884
	c0.3729506-0.0932374,0.7350597,0.1620297,0.7848864,0.5304437L15,4.2404132v8.6776867
	c0,0.2595615-0.1570253,0.4895153-0.3908815,0.5871525l-0.0911417,0.0302105l-4.6280985,1.1570253
	c-0.0880594,0.0220146-0.1794577,0.0248537-0.2680912,0.0087509l-0.0874853-0.0224075l-3.294302-1.0988312l-4.449295,1.1124878
	c-0.3729503,0.0932369-0.7350595-0.1620302-0.7848866-0.5304441L1,14.0751238V5.397438
	c0-0.2595615,0.157025-0.4895153,0.3908817-0.5871525l0.0911411-0.030211L4.559514,4.0098591
	C4.9237475,2.3880882,6.3657475,1.29,8,1.29z M13.727273,5.0545454l-2.3246899,0.5820632
	c-0.1062326,0.365912-0.2772169,0.7532811-0.5044022,1.1631293c-0.2536058,0.4575129-0.5736532,0.9347591-0.9451656,1.4238176
	C9.6250277,8.6553192,9.2749538,9.0729427,8.9248838,9.4617548C8.8195257,9.5787716,8.7255526,9.6807165,8.6457605,9.7656612l0,0
	L8.4517221,9.9675646c-0.24891,0.2508507-0.6545348,0.2508507-0.9034438,0
	C7.4996433,9.9185505,7.434032,9.850606,7.3542395,9.7656612l0,0L7.0751166,9.4617548
	C6.7250462,9.0729427,6.3749728,8.6553192,6.0469842,8.2235556C5.6754723,7.7344971,5.3554249,7.2572508,5.1018186,6.7997379
	c-0.2914381-0.5257626-0.4903898-1.014533-0.578805-1.4684682L2.2727273,5.8936362v7.3654542l3.8373945-0.9583549
	c0.0880599-0.0220146,0.1794581-0.0248537,0.2680912-0.0087509l0.0874858,0.0224066l3.2952104,1.0983362l3.9663639-0.9918184
	V5.0545454z M8,2.5627272c-1.2183709,0-2.2561984,0.9354677-2.2561984,2.2561986
	c0,0.3348079,0.1619897,0.8060122,0.4711666,1.3637767c0.2210321,0.3987489,0.5082307,0.8270111,0.8454857,1.2709732
	C7.3652134,7.8548613,7.6930842,8.2459984,8.0209579,8.610157l0,0L8,8.5854549l0.3060589-0.3478222
	C8.4144936,8.110878,8.5220728,7.9817533,8.6279392,7.8508849l0,0l0.3116074-0.3972092
	c0.3372545-0.4439621,0.6244526-0.8722243,0.8454847-1.2709732c0.3091774-0.5577645,0.4711666-1.0289688,0.4711666-1.3637767
	C10.2561979,3.4981949,9.2183714,2.5627272,8,2.5627272z M8,3.7445455c0.5469818,0,0.9909086,0.4439273,0.9909086,0.9909091
	S8.5469818,5.7263637,8,5.7263637S7.0090909,5.2824364,7.0090909,4.7354546S7.4530182,3.7445455,8,3.7445455z"/>
</svg>
