<?xml version="1.0" encoding="utf-8"?>
<!-- Generator: Adobe Illustrator 24.0.1, SVG Export Plug-In . SVG Version: 6.00 Build 0)  -->
<svg version="1.1" id="Layer_1" xmlns="http://www.w3.org/2000/svg" x="0px" y="0px"
	 width="16px" height="16px" viewBox="0 0 16 16" enable-background="new 0 0 16 16" xml:space="preserve">
<path id="path-1_1_" fill-rule="evenodd" clip-rule="evenodd" fill="#181C56" d="M1.6242038,14.8724842
	C1.2794656,14.8724842,1,14.5930185,1,14.2482805l0,0V1.7642038C1,1.4194655,1.2794656,1.14,1.6242038,1.14l0,0h7.9444122
	c0.344738,0,0.6242037,0.2794656,0.6242037,0.6242038l0,0l-0.0008192,6.7327957l4.1837959,0.0199547
	c0.3160095,0,0.5771732,0.2348289,0.6185055,0.5395031L15,9.1411581v5.1071224c0,0.3160095-0.2348289,0.5771723-0.5395031,0.6185055
	l-0.0847006,0.0056982H1.6242038z M10.1920004,9.7460003v3.8779993l3.5595922,0.0000772V9.7647133L10.1920004,9.7460003z
	 M8.9439259,2.3884077H2.2480023v11.2356691l2.7239978-0.0000772l0.000206-1.1348391H6.220614l-0.0006142,1.1348391
	l2.7239261,0.0000772V2.3884077z M5.0856977,10.2193279v1.2484083H3.2698321v-1.2484083H5.0856977z M7.9229879,10.2193279v1.2484083
	h-1.815866v-1.2484083H7.9229879z M5.0856977,7.9494963v1.2484074H3.2698321V7.9494963H5.0856977z M7.9229879,7.9494963v1.2484074
	h-1.815866V7.9494963H7.9229879z M5.0856977,5.6796641V6.928072H3.2698321V5.6796641H5.0856977z M7.9229879,5.6796641V6.928072
	h-1.815866V5.6796641H7.9229879z M5.0856977,3.409832v1.2484078H3.2698321V3.409832H5.0856977z M7.9229879,3.409832v1.2484078
	h-1.815866V3.409832H7.9229879z"/>
</svg>
