<?xml version="1.0" encoding="utf-8"?>
<!-- Generator: Adobe Illustrator 24.0.3, SVG Export Plug-In . SVG Version: 6.00 Build 0)  -->
<svg version="1.1" id="Layer_1" xmlns="http://www.w3.org/2000/svg" xmlns:xlink="http://www.w3.org/1999/xlink" x="0px" y="0px"
	 width="16px" height="16px" viewBox="0 0 16 16" enable-background="new 0 0 16 16" xml:space="preserve">
<g id="Icon_x2F_UI_x2F_Settings">
	<g id="Icon-Fill">
		<path id="path-1_1_" fill-rule="evenodd" clip-rule="evenodd" fill="#ffffff" d="M9.6359997,1H6.3639998l-0.382,2.135
			l-0.073,0.029C5.4990001,3.3329999,5.1160002,3.55,4.7659998,3.8099999l-0.0579996,0.043L2.6359999,3.1110001L1,5.8899999
			l1.694,1.3900003c0,0-0.0550001,0.4309998-0.0550001,0.7199998l0.0050001,0.2180004
			C2.651,8.3649998,2.665,8.5150003,2.6860001,8.6689997L2.694,8.7200003L1,10.1110001l1.6359999,2.7790003l2.0730002-0.7440004
			L4.7649999,12.191c0.3510003,0.2589998,0.7340002,0.4759998,1.145,0.6459999l0.072,0.0270004L6.3639998,15h3.2719998
			l0.3810005-2.1359997l0.073-0.0279999c0.4110003-0.1690006,0.7939997-0.3860006,1.1440001-0.6450005L11.29,12.1459999
			l2.0740004,0.7440004L15,10.1110001l-1.6949997-1.3920002c0,0,0.0559998-0.4300003,0.0559998-0.7189999l-0.0050001-0.2179999
			c-0.007-0.1469998-0.0209999-0.296-0.0419998-0.4500003l-0.0089998-0.0519996L15,5.8899999l-1.6359997-2.7789998l-2.073,0.7419999
			l-0.0560007-0.043c-0.3509998-0.26-0.7339993-0.477-1.1449995-0.6459999l-0.0740004-0.029L9.6359997,1z M7.4070001,2.22h1.1839995
			l0.2330008,1.302C8.8800001,3.839,9.1040001,4.1020002,9.4119997,4.2119999
			c0.4560003,0.164,0.8690004,0.3970003,1.2290001,0.6930003l0.0869999,0.0639997
			c0.2410002,0.1550002,0.5460005,0.191,0.8210001,0.0910001l1.2589998-0.4530001l0.5910006,1.0040002l-1.033,0.849
			c-0.2510004,0.2059999-0.3710003,0.5279999-0.3150005,0.8439999c0.0440006,0.2540002,0.066,0.48,0.066,0.6960001
			c0,0.2159996-0.0219994,0.4429998-0.066,0.6949997l-0.0120001,0.1059999
			C12.0240002,9.0830002,12.1429996,9.3570004,12.3669996,9.54l1.0320005,0.8470001l-0.5910006,1.0039997l-1.2620001-0.4519997
			c-0.3059998-0.1110001-0.6539993-0.0510006-0.9059992,0.1569996C10.2810001,11.3909998,9.868,11.6239996,9.4119997,11.7880001
			l-0.099,0.0419998c-0.257,0.1280003-0.4390001,0.3669996-0.4889994,0.6479998l-0.2330008,1.302H7.4070001l-0.23-1.302
			C7.1199999,12.1610003,6.895,11.8979998,6.5879998,11.7880001c-0.4559999-0.1640005-0.869-0.3970003-1.2289996-0.6929998
			l-0.0870004-0.0630007c-0.2409997-0.1549997-0.5449996-0.191-0.8199997-0.092L3.191,11.3909998l-0.592-1.0039997L3.6340001,9.54
			C3.885,9.3339996,4.0050001,9.0129995,3.9489999,8.6960001C3.904,8.4429998,3.8829999,8.2159996,3.8829999,8
			c0-0.2160001,0.0210001-0.4419999,0.066-0.6950002L3.961,7.1989999C3.9760001,6.9169998,3.8559999,6.6430001,3.6329999,6.46
			L2.599,5.6110001l0.592-1.0040002l1.263,0.454C4.7610002,5.1719999,5.1079998,5.112,5.3590002,4.9050002
			c0.3599997-0.296,0.7729998-0.5290003,1.2289996-0.6920004l0.099-0.0429997c0.256-0.1280003,0.4390001-0.3660002,0.4900002-0.648
			L7.4070001,2.22z M5.4988999,7.9991999c0,1.3789997,1.1230001,2.5010004,2.5009999,2.5010004l0,0
			c1.3780003,0,2.5-1.1220007,2.5-2.5010004l0,0c0-1.3769999-1.1219997-2.4990001-2.5-2.4990001l0,0
			C6.6219001,5.5001998,5.4988999,6.6222,5.4988999,7.9991999L5.4988999,7.9991999z M6.5499001,7.9991999
			c0-0.7979999,0.651-1.4489999,1.4499998-1.4489999l0,0c0.7989998,0,1.4499998,0.651,1.4499998,1.4489999l0,0
			c0,0.8000002-0.651,1.4510002-1.4499998,1.4510002l0,0C7.2009001,9.4502001,6.5499001,8.7992001,6.5499001,7.9991999
			L6.5499001,7.9991999z"/>
	</g>
</g>
</svg>
