<?xml version="1.0" encoding="utf-8"?>
<!-- Generator: Adobe Illustrator 24.0.1, SVG Export Plug-In . SVG Version: 6.00 Build 0)  -->
<svg version="1.1" id="Layer_1" xmlns="http://www.w3.org/2000/svg" xmlns:xlink="http://www.w3.org/1999/xlink" x="0px" y="0px"
	 width="16px" height="16px" viewBox="0 0 16 16" enable-background="new 0 0 16 16" xml:space="preserve">
<path id="path-1_1_" fill-rule="evenodd" clip-rule="evenodd" fill="#ffffff" d="M8,1
	c2.2686443,0,4.1074381,1.838794,4.1074381,4.1074381c0,1.2743878-0.5802345,2.4131355-1.4909573,3.1664972
	c2.4819889,0.8278484,4.2892694,3.1332855,4.3799458,5.8734217L15,14.363636V15h-1.272727v-0.636364
	c0-2.7775373-2.1991234-5.041255-4.9512615-5.1450424L8.5785122,9.2148762H7.4214878
	c-2.7775383,0-5.041256,2.1991234-5.1450424,4.9512606L2.2727273,14.363636V15H1v-0.636364
	c0-2.8345575,1.8364367-5.2400675,4.3844728-6.091691C4.4727964,7.5205736,3.8925619,6.3818259,3.8925619,5.1074381
	C3.8925619,2.838794,5.7313561,1,8,1z M8,2.2727273c-1.5657363,0-2.8347106,1.2689745-2.8347106,2.8347108
	S6.4342637,7.9421487,8,7.9421487s2.8347111-1.2689743,2.8347111-2.8347106S9.5657358,2.2727273,8,2.2727273z"/>
</svg>
