<?xml version="1.0" encoding="utf-8"?>
<!-- Generator: Adobe Illustrator 24.0.1, SVG Export Plug-In . SVG Version: 6.00 Build 0)  -->
<svg version="1.1" id="Layer_1" xmlns="http://www.w3.org/2000/svg" xmlns:xlink="http://www.w3.org/1999/xlink" x="0px" y="0px"
	 width="16px" height="16px" viewBox="0 0 16 16" enable-background="new 0 0 16 16" xml:space="preserve">
<path id="path-1_1_" fill-rule="evenodd" clip-rule="evenodd" fill="#181C56" d="M7.5573921,1.1659415
	c0.2489123-0.2212553,0.6240063-0.2212553,0.8729181,0l0,0l5.4368935,4.8327942
	c0.1402521,0.1246691,0.220499,0.3033643,0.220499,0.4910164l0,0v7.8532906C14.0877028,14.7058697,13.7935724,15,13.4307442,15l0,0
	H9.8061485c-0.3628273,0-0.6569576-0.2941303-0.6569576-0.6569576l0,0v-3.5720396H6.8385115v3.5720396
	c0,0.332592-0.2471509,0.6074591-0.5678129,0.65096l0,0L6.1815534,15H2.556958C2.1941302,15,1.9,14.7058697,1.9,14.3430424l0,0
	V6.4897518c0-0.1876521,0.080246-0.3663473,0.2204989-0.4910164l0,0L7.5573921,1.1659415z M7.9938512,2.5350163L3.2139158,6.7839484
	v6.9021354h2.3097734l0.000906-3.5717363c0-0.332592,0.2471514-0.6074591,0.5678129-0.6509609l0,0l0.0891452-0.0059967h3.6245952
	c0.3628283,0,0.6569586,0.2941294,0.6569586,0.6569576l0,0v3.5717363h2.3106794V6.7848544L7.9938512,2.5350163z"/>
</svg>
